<svg xmlns="http://www.w3.org/2000/svg" viewBox="0 0 1920 1080" fill="none">
  <defs>
    <linearGradient id="heroGradient" x1="0%" y1="0%" x2="100%" y2="100%">
      <stop offset="0%" style="stop-color:#001d3d;stop-opacity:1" />
      <stop offset="50%" style="stop-color:#003566;stop-opacity:1" />
      <stop offset="100%" style="stop-color:#0077b6;stop-opacity:1" />
    </linearGradient>
    <pattern id="grid" width="40" height="40" patternUnits="userSpaceOnUse">
      <path d="M 40 0 L 0 0 0 40" fill="none" stroke="rgba(255,255,255,0.1)" stroke-width="1"/>
    </pattern>
  </defs>
  
  <!-- Background -->
  <rect width="1920" height="1080" fill="url(#heroGradient)"/>
  
  <!-- Grid Pattern -->
  <rect width="1920" height="1080" fill="url(#grid)"/>
  
  <!-- Geometric Shapes -->
  <circle cx="1600" cy="200" r="150" fill="rgba(255,214,10,0.1)" opacity="0.8"/>
  <circle cx="300" cy="800" r="100" fill="rgba(255,214,10,0.15)" opacity="0.6"/>
  
  <!-- Building Silhouette -->
  <g transform="translate(100, 600)">
    <rect x="0" y="0" width="80" height="200" fill="rgba(255,255,255,0.1)"/>
    <rect x="90" y="50" width="60" height="150" fill="rgba(255,255,255,0.08)"/>
    <rect x="160" y="30" width="70" height="170" fill="rgba(255,255,255,0.12)"/>
    <rect x="240" y="70" width="50" height="130" fill="rgba(255,255,255,0.09)"/>
    <rect x="300" y="20" width="90" height="180" fill="rgba(255,255,255,0.11)"/>
  </g>
  
  <!-- Indonesian Government Symbol Elements -->
  <g transform="translate(1400, 300)">
    <!-- Simplified Garuda Wings -->
    <path d="M 0 50 Q 30 20 60 50 Q 90 20 120 50 Q 90 80 60 50 Q 30 80 0 50 Z" fill="rgba(255,214,10,0.2)" opacity="0.7"/>
    <circle cx="60" cy="50" r="15" fill="rgba(255,214,10,0.3)"/>
  </g>
  
  <!-- Decorative Elements -->
  <g transform="translate(800, 100)">
    <polygon points="0,0 20,30 40,0 30,40 10,40" fill="rgba(255,214,10,0.15)" opacity="0.8"/>
  </g>
  
  <g transform="translate(1200, 700)">
    <polygon points="0,20 15,0 30,20 15,40" fill="rgba(255,214,10,0.12)" opacity="0.6"/>
  </g>
  
  <!-- Floating Particles -->
  <circle cx="500" cy="300" r="3" fill="rgba(255,214,10,0.4)" opacity="0.8">
    <animate attributeName="cy" values="300;280;300" dur="3s" repeatCount="indefinite"/>
  </circle>
  <circle cx="1100" cy="500" r="2" fill="rgba(255,214,10,0.3)" opacity="0.6">
    <animate attributeName="cy" values="500;480;500" dur="4s" repeatCount="indefinite"/>
  </circle>
  <circle cx="700" cy="700" r="4" fill="rgba(255,214,10,0.5)" opacity="0.7">
    <animate attributeName="cy" values="700;680;700" dur="2.5s" repeatCount="indefinite"/>
  </circle>
</svg>