<svg width="32" height="32" viewBox="0 0 32 32" fill="none" xmlns="http://www.w3.org/2000/svg">
  <!-- Background -->
  <rect width="32" height="32" rx="6" fill="url(#gradient)"/>
  
  <!-- Building Icon -->
  <g transform="translate(6, 8)">
    <!-- Main Building -->
    <rect x="2" y="10" width="16" height="8" fill="#ffffff" rx="1"/>
    
    <!-- Columns -->
    <rect x="3" y="10" width="1" height="8" fill="#e8f4fd"/>
    <rect x="5" y="10" width="1" height="8" fill="#e8f4fd"/>
    <rect x="7" y="10" width="1" height="8" fill="#e8f4fd"/>
    <rect x="9" y="10" width="1" height="8" fill="#e8f4fd"/>
    <rect x="11" y="10" width="1" height="8" fill="#e8f4fd"/>
    <rect x="13" y="10" width="1" height="8" fill="#e8f4fd"/>
    <rect x="15" y="10" width="1" height="8" fill="#e8f4fd"/>
    
    <!-- Roof -->
    <polygon points="0,10 10,4 20,10" fill="#ffffff"/>
    
    <!-- Flag -->
    <rect x="9" y="2" width="1" height="4" fill="#ffffff"/>
    <rect x="10" y="2" width="4" height="2" fill="#ffffff"/>
    <rect x="10" y="2" width="4" height="1" fill="#ff0000"/>
    
    <!-- Door -->
    <rect x="8" y="14" width="4" height="4" fill="#001d3d" rx="0.5"/>
  </g>
  
  <!-- Gradient Definition -->
  <defs>
    <linearGradient id="gradient" x1="0%" y1="0%" x2="100%" y2="100%">
      <stop offset="0%" style="stop-color:#001d3d;stop-opacity:1" />
      <stop offset="100%" style="stop-color:#0066cc;stop-opacity:1" />
    </linearGradient>
  </defs>
</svg>